<?xml version="1.0" encoding="UTF-8"?>
<svg width="1350" height="940" xmlns="http://www.w3.org/2000/svg" font-family="Arial, Helvetica, sans-serif">
<rect width="1350" height="940" fill="#FFFFFF"/>
<line x1="50" y1="0" x2="50" y2="940" stroke="#F6F6F6" stroke-width="0.5"/>
<line x1="100" y1="0" x2="100" y2="940" stroke="#F6F6F6" stroke-width="0.5"/>
<line x1="150" y1="0" x2="150" y2="940" stroke="#F6F6F6" stroke-width="0.5"/>
<line x1="200" y1="0" x2="200" y2="940" stroke="#F6F6F6" stroke-width="0.5"/>
<line x1="250" y1="0" x2="250" y2="940" stroke="#F6F6F6" stroke-width="0.5"/>
<line x1="300" y1="0" x2="300" y2="940" stroke="#F6F6F6" stroke-width="0.5"/>
<line x1="350" y1="0" x2="350" y2="940" stroke="#F6F6F6" stroke-width="0.5"/>
<line x1="400" y1="0" x2="400" y2="940" stroke="#F6F6F6" stroke-width="0.5"/>
<line x1="450" y1="0" x2="450" y2="940" stroke="#F6F6F6" stroke-width="0.5"/>
<line x1="500" y1="0" x2="500" y2="940" stroke="#F6F6F6" stroke-width="0.5"/>
<line x1="550" y1="0" x2="550" y2="940" stroke="#F6F6F6" stroke-width="0.5"/>
<line x1="600" y1="0" x2="600" y2="940" stroke="#F6F6F6" stroke-width="0.5"/>
<line x1="650" y1="0" x2="650" y2="940" stroke="#F6F6F6" stroke-width="0.5"/>
<line x1="700" y1="0" x2="700" y2="940" stroke="#F6F6F6" stroke-width="0.5"/>
<line x1="750" y1="0" x2="750" y2="940" stroke="#F6F6F6" stroke-width="0.5"/>
<line x1="800" y1="0" x2="800" y2="940" stroke="#F6F6F6" stroke-width="0.5"/>
<line x1="850" y1="0" x2="850" y2="940" stroke="#F6F6F6" stroke-width="0.5"/>
<line x1="900" y1="0" x2="900" y2="940" stroke="#F6F6F6" stroke-width="0.5"/>
<line x1="950" y1="0" x2="950" y2="940" stroke="#F6F6F6" stroke-width="0.5"/>
<line x1="1000" y1="0" x2="1000" y2="940" stroke="#F6F6F6" stroke-width="0.5"/>
<line x1="1050" y1="0" x2="1050" y2="940" stroke="#F6F6F6" stroke-width="0.5"/>
<line x1="1100" y1="0" x2="1100" y2="940" stroke="#F6F6F6" stroke-width="0.5"/>
<line x1="1150" y1="0" x2="1150" y2="940" stroke="#F6F6F6" stroke-width="0.5"/>
<line x1="1200" y1="0" x2="1200" y2="940" stroke="#F6F6F6" stroke-width="0.5"/>
<line x1="1250" y1="0" x2="1250" y2="940" stroke="#F6F6F6" stroke-width="0.5"/>
<line x1="1300" y1="0" x2="1300" y2="940" stroke="#F6F6F6" stroke-width="0.5"/>
<line x1="0" y1="50" x2="1350" y2="50" stroke="#F6F6F6" stroke-width="0.5"/>
<line x1="0" y1="100" x2="1350" y2="100" stroke="#F6F6F6" stroke-width="0.5"/>
<line x1="0" y1="150" x2="1350" y2="150" stroke="#F6F6F6" stroke-width="0.5"/>
<line x1="0" y1="200" x2="1350" y2="200" stroke="#F6F6F6" stroke-width="0.5"/>
<line x1="0" y1="250" x2="1350" y2="250" stroke="#F6F6F6" stroke-width="0.5"/>
<line x1="0" y1="300" x2="1350" y2="300" stroke="#F6F6F6" stroke-width="0.5"/>
<line x1="0" y1="350" x2="1350" y2="350" stroke="#F6F6F6" stroke-width="0.5"/>
<line x1="0" y1="400" x2="1350" y2="400" stroke="#F6F6F6" stroke-width="0.5"/>
<line x1="0" y1="450" x2="1350" y2="450" stroke="#F6F6F6" stroke-width="0.5"/>
<line x1="0" y1="500" x2="1350" y2="500" stroke="#F6F6F6" stroke-width="0.5"/>
<line x1="0" y1="550" x2="1350" y2="550" stroke="#F6F6F6" stroke-width="0.5"/>
<line x1="0" y1="600" x2="1350" y2="600" stroke="#F6F6F6" stroke-width="0.5"/>
<line x1="0" y1="650" x2="1350" y2="650" stroke="#F6F6F6" stroke-width="0.5"/>
<line x1="0" y1="700" x2="1350" y2="700" stroke="#F6F6F6" stroke-width="0.5"/>
<line x1="0" y1="750" x2="1350" y2="750" stroke="#F6F6F6" stroke-width="0.5"/>
<line x1="0" y1="800" x2="1350" y2="800" stroke="#F6F6F6" stroke-width="0.5"/>
<line x1="0" y1="850" x2="1350" y2="850" stroke="#F6F6F6" stroke-width="0.5"/>
<line x1="0" y1="900" x2="1350" y2="900" stroke="#F6F6F6" stroke-width="0.5"/>
<rect x="0" y="0" width="1350" height="65" fill="#4A2E9A"/>
<text x="675" y="27" text-anchor="middle" font-size="19" font-weight="bold" fill="#FFF">MediQ Antibiotic Management System</text>
<text x="675" y="50" text-anchor="middle" font-size="12" font-weight="normal" fill="#CCC">Data Flow Diagram — Level 1  (Yourdon-DeMarco Standard Notation)</text>
<rect x="30" y="208" width="140" height="68" fill="#FFFFC8" stroke="#666" stroke-width="2"/>
<text x="100" y="246" text-anchor="middle" font-size="12" font-weight="normal" fill="#111">Pharmacist</text>
<rect x="30" y="598" width="140" height="68" fill="#FFFFC8" stroke="#666" stroke-width="2"/>
<text x="100" y="636" text-anchor="middle" font-size="12" font-weight="normal" fill="#111">Admin</text>
<text x="100" y="291" text-anchor="middle" font-size="8" font-weight="normal" fill="#888">External Entity</text>
<text x="100" y="681" text-anchor="middle" font-size="8" font-weight="normal" fill="#888">External Entity</text>
<rect x="250" y="78" width="215" height="88" rx="12" ry="12" fill="#FFFFC8" stroke="#666" stroke-width="2"/>
<rect x="250" y="78" width="32" height="24" rx="8" ry="8" fill="#E8E89A" stroke="#666" stroke-width="1.5"/>
<rect x="266" y="78" width="16" height="24" fill="#E8E89A" stroke="none"/>
<line x1="282" y1="78" x2="282" y2="102" stroke="#666" stroke-width="1.5"/>
<text x="266" y="96" text-anchor="middle" font-size="11" font-weight="bold" fill="#333">1</text>
<text x="365.5" y="121" text-anchor="middle" font-size="11" font-weight="normal" fill="#222">Authenticate &amp;</text>
<text x="365.5" y="137" text-anchor="middle" font-size="11" font-weight="normal" fill="#222">Register User</text>
<rect x="250" y="234" width="215" height="88" rx="12" ry="12" fill="#FFFFC8" stroke="#666" stroke-width="2"/>
<rect x="250" y="234" width="32" height="24" rx="8" ry="8" fill="#E8E89A" stroke="#666" stroke-width="1.5"/>
<rect x="266" y="234" width="16" height="24" fill="#E8E89A" stroke="none"/>
<line x1="282" y1="234" x2="282" y2="258" stroke="#666" stroke-width="1.5"/>
<text x="266" y="252" text-anchor="middle" font-size="11" font-weight="bold" fill="#333">2</text>
<text x="365.5" y="277" text-anchor="middle" font-size="11" font-weight="normal" fill="#222">Release</text>
<text x="365.5" y="293" text-anchor="middle" font-size="11" font-weight="normal" fill="#222">Transaction</text>
<rect x="250" y="394" width="215" height="88" rx="12" ry="12" fill="#FFFFC8" stroke="#666" stroke-width="2"/>
<rect x="250" y="394" width="32" height="24" rx="8" ry="8" fill="#E8E89A" stroke="#666" stroke-width="1.5"/>
<rect x="266" y="394" width="16" height="24" fill="#E8E89A" stroke="none"/>
<line x1="282" y1="394" x2="282" y2="418" stroke="#666" stroke-width="1.5"/>
<text x="266" y="412" text-anchor="middle" font-size="11" font-weight="bold" fill="#333">3</text>
<text x="365.5" y="437" text-anchor="middle" font-size="11" font-weight="normal" fill="#222">Return</text>
<text x="365.5" y="453" text-anchor="middle" font-size="11" font-weight="normal" fill="#222">Transaction</text>
<rect x="250" y="554" width="215" height="88" rx="12" ry="12" fill="#FFFFC8" stroke="#666" stroke-width="2"/>
<rect x="250" y="554" width="32" height="24" rx="8" ry="8" fill="#E8E89A" stroke="#666" stroke-width="1.5"/>
<rect x="266" y="554" width="16" height="24" fill="#E8E89A" stroke="none"/>
<line x1="282" y1="554" x2="282" y2="578" stroke="#666" stroke-width="1.5"/>
<text x="266" y="572" text-anchor="middle" font-size="11" font-weight="bold" fill="#333">4</text>
<text x="365.5" y="597" text-anchor="middle" font-size="11" font-weight="normal" fill="#222">Inventory &amp;</text>
<text x="365.5" y="613" text-anchor="middle" font-size="11" font-weight="normal" fill="#222">Master Settings</text>
<rect x="250" y="718" width="215" height="88" rx="12" ry="12" fill="#FFFFC8" stroke="#666" stroke-width="2"/>
<rect x="250" y="718" width="32" height="24" rx="8" ry="8" fill="#E8E89A" stroke="#666" stroke-width="1.5"/>
<rect x="266" y="718" width="16" height="24" fill="#E8E89A" stroke="none"/>
<line x1="282" y1="718" x2="282" y2="742" stroke="#666" stroke-width="1.5"/>
<text x="266" y="736" text-anchor="middle" font-size="11" font-weight="bold" fill="#333">5</text>
<text x="365.5" y="761" text-anchor="middle" font-size="11" font-weight="normal" fill="#222">Analytics &amp;</text>
<text x="365.5" y="777" text-anchor="middle" font-size="11" font-weight="normal" fill="#222">Reports</text>
<rect x="700" y="413" width="375" height="68" fill="#F5F5F5" stroke="none"/>
<line x1="700" y1="413" x2="1075" y2="413" stroke="#444" stroke-width="2"/>
<line x1="700" y1="481" x2="1075" y2="481" stroke="#444" stroke-width="2"/>
<line x1="700" y1="413" x2="700" y2="481" stroke="#444" stroke-width="2"/>
<rect x="701" y="414" width="34" height="66" fill="#C8C8C8"/>
<line x1="736" y1="413" x2="736" y2="481" stroke="#444" stroke-width="2"/>
<text x="718" y="452" text-anchor="middle" font-size="10" font-weight="bold" fill="#333">D1</text>
<text x="746" y="452" text-anchor="start" font-size="13" font-weight="normal" fill="#111">Firebase Firestore Database</text>
<text x="905.5" y="495" text-anchor="middle" font-size="8" font-weight="normal" fill="#999">Collections:  users  |  wards  |  antibiotics  |  book_numbers</text>
<text x="905.5" y="507" text-anchor="middle" font-size="8" font-weight="normal" fill="#999">main_stock  |  releases  |  return_stock  |  returns</text>
<polyline points="170,226 250,98" fill="none" stroke="#222" stroke-width="1.5"/>
<polygon points="250,98 248.90420129942927,107.93977993759557 241.54554780128777,103.34062150125713" fill="#222"/>
<text x="192" y="212" text-anchor="middle" font-size="9" font-weight="normal" fill="#444">Register request</text>
<polyline points="170,256 250,143" fill="none" stroke="#222" stroke-width="1.5"/>
<polygon points="250,143 248.3352627161731,152.86045890290288 241.2528360788883,147.84635154907292" fill="#222"/>
<text x="192" y="268" text-anchor="middle" font-size="9" font-weight="normal" fill="#444">Login credentials</text>
<line x1="170" y1="252" x2="250" y2="278" stroke="#222" stroke-width="1.5"/>
<polygon points="250,278 240.09040490983867,279.3416128909079 242.77255332533827,271.08884853552456" fill="#222"/>
<text x="192" y="276" text-anchor="middle" font-size="9" font-weight="normal" fill="#444">Release details</text>
<polyline points="170,276 185,294 185,438 250,438" fill="none" stroke="#222" stroke-width="1.5"/>
<polygon points="250,438 240.99031132097582,442.33883739117556 240.99031132097582,433.66116260882444" fill="#222"/>
<text x="212" y="304" text-anchor="middle" font-size="9" font-weight="normal" fill="#444">Return details</text>
<polyline points="170,612 222,612 222,113 250,113" fill="none" stroke="#222" stroke-width="1.5"/>
<polygon points="250,113 240.99031132097582,117.33883739117559 240.99031132097582,108.66116260882441" fill="#222"/>
<text x="222" y="574" text-anchor="middle" font-size="9" font-weight="normal" fill="#444">Approve / Disable</text>
<line x1="170" y1="632" x2="250" y2="598" stroke="#222" stroke-width="1.5"/>
<polygon points="250,598 243.40520057854536,605.5172216004838 240.01100930747214,597.5308891979587" fill="#222"/>
<text x="192" y="595" text-anchor="middle" font-size="9" font-weight="normal" fill="#444">Manage stock &amp; settings</text>
<polyline points="170,652 188,681 188,762 250,762" fill="none" stroke="#222" stroke-width="1.5"/>
<polygon points="250,762 240.99031132097582,766.3388373911756 240.99031132097582,757.6611626088244" fill="#222"/>
<text x="213" y="691" text-anchor="middle" font-size="9" font-weight="normal" fill="#444">Request reports</text>
<polyline points="465,100 700,429" fill="none" stroke="#222" stroke-width="1.5"/>
<polygon points="700,429 691.2325676149097,424.1904127648134 698.2938820375555,419.1466167486378" fill="#222"/>
<text x="570" y="88" text-anchor="middle" font-size="9" font-weight="normal" fill="#444">Save user profile  (status: Pending)</text>
<polyline points="700,451 465,144" fill="none" stroke="#222" stroke-width="1.5"/>
<polygon points="465,144 473.92171056411564,148.5169769326561 467.03108078032903,153.79156324923545" fill="#222"/>
<text x="576" y="419" text-anchor="middle" font-size="9" font-weight="normal" fill="#444">Fetch profile &amp; check status</text>
<line x1="465" y1="266" x2="700" y2="427.96" stroke="#222" stroke-width="1.5"/>
<polygon points="700,427.96 690.1193235362925,426.41979461774173 695.043680046729,419.2746737239866" fill="#222"/>
<text x="570" y="254" text-anchor="middle" font-size="9" font-weight="normal" fill="#444">Create release doc  +  deduct main_stock</text>
<line x1="700" y1="442.92" x2="465" y2="296" stroke="#222" stroke-width="1.5"/>
<polygon points="465,296 474.9396289646456,297.097167282222 470.33945737094115,304.4551874600095" fill="#222"/>
<text x="572" y="442.76" text-anchor="middle" font-size="9" font-weight="normal" fill="#444">Fetch main_stock qty  &amp;  drug info</text>
<line x1="465" y1="426" x2="700" y2="455.15999999999997" stroke="#222" stroke-width="1.5"/>
<polygon points="700,455.15999999999997 690.5245945171608,458.35635588378096 691.5931696538615,449.74472498101477" fill="#222"/>
<text x="570" y="416" text-anchor="middle" font-size="9" font-weight="normal" fill="#444">Create return doc  +  update return_stock</text>
<line x1="700" y1="468.76" x2="465" y2="456" stroke="#222" stroke-width="1.5"/>
<polygon points="465,456 474.2316796425015,452.15603187081064 473.7611934121305,460.8209428533473" fill="#222"/>
<text x="572" y="473.96" text-anchor="middle" font-size="9" font-weight="normal" fill="#444">Fetch return_stock qty  &amp;  drug info</text>
<polyline points="465,598 700,476.24" fill="none" stroke="#222" stroke-width="1.5"/>
<polygon points="700,476.24 693.9963852175308,484.2372876366752 690.0042761601371,476.5324122384531" fill="#222"/>
<text x="570" y="588" text-anchor="middle" font-size="9" font-weight="normal" fill="#444">Override / Increment stock  +  write wards &amp; book_numbers</text>
<polyline points="700,481 676,505 676,762 465,762" fill="none" stroke="#222" stroke-width="1.5"/>
<polygon points="465,762 474.0096886790242,757.6611626088244 474.0096886790242,766.3388373911756" fill="#222"/>
<text x="502" y="519" text-anchor="middle" font-size="9" font-weight="normal" fill="#444">Stream  releases  &amp;  returns  logs</text>
<polyline points="305,806 305,842 100,842 100,666" fill="none" stroke="#222" stroke-width="1.5"/>
<polygon points="100,666 104.33883739117559,675.0096886790242 95.66116260882441,675.0096886790242" fill="#222"/>
<text x="168" y="852" text-anchor="middle" font-size="9" font-weight="normal" fill="#444">Charts  &amp;  CSV reports</text>
<rect x="1125" y="78" width="208" height="200" fill="#FAFAFA" stroke="#CCCCCC" stroke-width="1.5" rx="8"/>
<rect x="1125" y="78" width="208" height="26" fill="#EEEEEE" rx="8"/>
<rect x="1125" y="91" width="208" height="13" fill="#EEEEEE" stroke="none"/>
<text x="1229" y="96" text-anchor="middle" font-size="11" font-weight="bold" fill="#333">DFD Notation Legend</text>
<rect x="1139" y="112" width="44" height="22" fill="#FFFFC8" stroke="#666" stroke-width="1.5"/>
<text x="1191" y="127" text-anchor="start" font-size="9" font-weight="normal" fill="#333">External Entity</text>
<rect x="1139" y="142" width="44" height="26" rx="6" fill="#FFFFC8" stroke="#666" stroke-width="1.5"/>
<rect x="1139" y="142" width="16" height="13" rx="4" fill="#E8E89A" stroke="#666" stroke-width="1"/>
<rect x="1147" y="142" width="8" height="13" fill="#E8E89A" stroke="none"/>
<line x1="1155" y1="142" x2="1155" y2="155" stroke="#666" stroke-width="1"/>
<text x="1191" y="159" text-anchor="start" font-size="9" font-weight="normal" fill="#333">Process</text>
<rect x="1139" y="176" width="44" height="22" fill="#F5F5F5" stroke="none"/>
<line x1="1139" y1="176" x2="1183" y2="176" stroke="#444" stroke-width="1.5"/>
<line x1="1139" y1="198" x2="1183" y2="198" stroke="#444" stroke-width="1.5"/>
<line x1="1139" y1="176" x2="1139" y2="198" stroke="#444" stroke-width="1.5"/>
<rect x="1140" y="177" width="11" height="20" fill="#C8C8C8"/>
<line x1="1151" y1="176" x2="1151" y2="198" stroke="#444" stroke-width="1.5"/>
<text x="1191" y="191" text-anchor="start" font-size="9" font-weight="normal" fill="#333">Data Store</text>
<line x1="1139" y1="214" x2="1183" y2="214" stroke="#222" stroke-width="1.5"/>
<polygon points="1183,214 1175,210 1175,218" fill="#222"/>
<text x="1191" y="218" text-anchor="start" font-size="9" font-weight="normal" fill="#333">Data Flow</text>
<line x1="1137" y1="233" x2="1321" y2="233" stroke="#DDD" stroke-width="1"/>
<text x="1229" y="247" text-anchor="middle" font-size="8" font-weight="normal" fill="#999">Yourdon-DeMarco Notation</text>
<text x="1229" y="260" text-anchor="middle" font-size="8" font-weight="normal" fill="#999">MediQ — DFD Level 1</text>
<text x="675" y="925" text-anchor="middle" font-size="8" font-weight="normal" fill="#AAA">DFD Level 1 — In DFD, the Firebase Firestore Database is represented as a single Data Store (D1). Individual collections are detailed in the ERD.</text>
</svg>